<svg width="44" height="45" viewBox="0 0 44 45" fill="none" xmlns="http://www.w3.org/2000/svg">
<g clip-path="url(#clip0_32_499)">
<circle cx="22" cy="22.5" r="22" fill="#DAE3EA"/>
<path fill-rule="evenodd" clip-rule="evenodd" d="M26.1903 18.3094C26.1903 20.6246 24.3151 22.4998 21.9998 22.4998C19.6846 22.4998 17.8094 20.6246 17.8094 18.3094C17.8094 15.9941 19.6846 14.1189 21.9998 14.1189C24.3151 14.1189 26.1903 15.9941 26.1903 18.3094ZM13.6189 28.7856C13.6189 25.9989 19.2027 24.5951 21.9998 24.5951C24.797 24.5951 30.3808 25.9989 30.3808 28.7856V29.8332C30.3808 30.4094 29.9094 30.8808 29.3332 30.8808H14.6665C14.0903 30.8808 13.6189 30.4094 13.6189 29.8332V28.7856Z" fill="#94A3B1"/>
</g>
<defs>
<clipPath id="clip0_32_499">
<rect width="44" height="44" fill="white" transform="translate(0 0.5)"/>
</clipPath>
</defs>
</svg>
