<svg width="1920" height="112" viewBox="0 0 1920 112" fill="none" xmlns="http://www.w3.org/2000/svg">
<rect width="1920" height="112" fill="#58DF6D"/>
<path d="M532.611 40.2012V42.5762H546.156V40.2012H550.869V51.5566H527.936V40.2012H532.611ZM532.611 48.0312H546.156V45.9902H532.611V48.0312ZM554.803 53.4121V57.0859H524.002V53.4121H554.803ZM551.055 59.0898V67.625H532.24V69.6289H551.945V73.1914H527.602V64.3223H546.379V62.541H527.564V59.0898H551.055ZM586.959 57.7539V61.5391H556.047V57.7539H569.146V55.3047H559.906V46.0273H578.461V43.9492H559.832V40.2754H583.211V49.4414H564.619V51.668H583.842V55.3047H573.859V57.7539H586.959ZM583.396 63.4688V73.2656H578.609V67.1797H559.498V63.4688H583.396ZM598.705 49.9238C598.705 55.0449 600.56 60.166 605.347 62.7637L602.75 66.2148C599.707 64.6562 597.684 61.9102 596.515 58.6074C595.328 62.207 593.305 65.25 590.244 67.0312L587.535 63.4688C592.396 60.6484 594.214 55.1562 594.251 49.9238V49.1445H588.796V45.3594H594.251V40.7949H598.668V45.3594H604.011V49.1445H598.705V49.9238ZM617.371 39.6445V73.4141H612.88V39.6445H617.371ZM610.468 40.2012V71.8555H606.015V56.3066H602.044V52.4473H606.015V40.2012H610.468ZM648.525 39.6816V63.9512H643.775V39.6816H648.525ZM649.415 69.0352V72.8203H625.888V61.502H630.675V69.0352H649.415ZM630.007 41.834C635.202 41.834 639.247 45.3965 639.247 50.332C639.247 55.3789 635.202 58.9043 630.007 58.9043C624.812 58.9043 620.767 55.3789 620.767 50.332C620.767 45.3965 624.812 41.834 630.007 41.834ZM630.007 45.9531C627.372 45.916 625.368 47.5859 625.406 50.332C625.368 53.1523 627.372 54.7852 630.007 54.7852C632.568 54.7852 634.572 53.1523 634.572 50.332C634.572 47.5859 632.568 45.916 630.007 45.9531ZM671.329 43.0215V45.7305C671.292 48.9219 671.292 53.0781 670.401 58.6816L665.726 58.3105C666.486 53.4121 666.561 49.7939 666.616 46.8066H653.814V43.0215H671.329ZM662.905 52.707V62.5039C666.227 62.374 669.604 62.1328 672.702 61.7246L672.999 65.25C666.06 66.4375 658.378 66.5488 652.478 66.5117L652.032 62.7266C653.925 62.708 656.04 62.708 658.23 62.6523V52.707H662.905ZM679.085 39.6445V53.2266H683.687V57.1602H679.085V73.4141H674.298V39.6445H679.085ZM719.202 39.6445V47.2148H723.766V51H719.202V58.8672H714.452V39.6445H719.202ZM719.202 60.2773V73.043H697.122V60.2773H719.202ZM701.797 64.0254V69.2578H714.526V64.0254H701.797ZM701.909 41.5C707.141 41.4629 711.112 44.877 711.112 49.6641C711.112 54.4512 707.141 57.8281 701.909 57.8281C696.639 57.8281 692.631 54.4512 692.631 49.6641C692.631 44.877 696.639 41.4629 701.909 41.5ZM701.909 45.4707C699.237 45.4336 697.27 47.0664 697.307 49.6641C697.27 52.2988 699.237 53.8574 701.909 53.8574C704.506 53.8574 706.473 52.2988 706.51 49.6641C706.473 47.0664 704.506 45.4336 701.909 45.4707ZM753.918 43.9121V47.6973H725.826V43.9121H737.516V39.9785H742.192V43.9121H753.918ZM755.403 66.1777V69.9629H724.491V66.1777H737.516V62.2812C731.764 61.7988 728.276 59.4238 728.313 55.7129C728.276 51.6309 732.729 49.1445 739.854 49.1816C746.867 49.1445 751.358 51.6309 751.358 55.7129C751.358 59.4238 747.851 61.7988 742.192 62.2812V66.1777H755.403ZM739.854 52.8555C735.475 52.8555 733.137 53.7832 733.174 55.7129C733.137 57.7168 735.475 58.6074 739.854 58.6074C744.121 58.6074 746.496 57.7168 746.496 55.7129C746.496 53.7832 744.121 52.8555 739.854 52.8555ZM783.588 39.6445V53.375H788.004V57.3086H783.588V73.4141H778.801V39.6445H783.588ZM756.164 63.877C758.632 63.877 761.508 63.877 764.514 63.8027V60.9082C760.914 60.2031 758.576 57.9209 758.613 54.7852C758.576 51 761.99 48.4395 766.926 48.4395C771.75 48.4395 775.201 51 775.238 54.7852C775.201 57.9209 772.826 60.2217 769.264 60.9082V63.6172C771.936 63.4873 774.626 63.2646 777.131 62.9121L777.428 66.3633C770.229 67.6992 762.51 67.7363 756.795 67.7363L756.164 63.877ZM776.871 43.3926V47.1035H756.832V43.3926H764.514V39.8301H769.264V43.3926H776.871ZM766.926 52.0391C764.625 52.0391 763.066 53.041 763.104 54.7852C763.066 56.5664 764.625 57.5312 766.926 57.5312C769.152 57.5312 770.674 56.5664 770.674 54.7852C770.674 53.041 769.152 52.0391 766.926 52.0391ZM818.193 39.6445V73.4141H813.629V39.6445H818.193ZM811.365 40.3125V71.8184H806.949V59.5352H803.646V55.6758H806.949V52.8184H803.646V48.959H806.949V40.3125H811.365ZM804.389 43.3926V47.2148H802.236V61.5391C803.164 61.4648 804.055 61.3721 804.871 61.2793L805.205 64.8047C800.047 65.6953 793.144 65.8438 788.803 65.8438L788.283 61.9473L791.103 61.9102V47.2148H788.914V43.3926H804.389ZM795.297 61.873L797.969 61.7617V47.2148H795.297V61.873Z" fill="white"/>
<rect x="310" y="32" width="50" height="50" rx="6" fill="#EDFFF0"/>
<path d="M334.656 68.3125C329.688 68.3125 326.125 65.5625 326.031 61.625H330.781C330.875 63.3125 332.5 64.4375 334.688 64.4375C336.938 64.4375 338.562 63.1562 338.531 61.3438C338.562 59.5 336.906 58.1875 334.25 58.1875H332.156V54.7188H334.25C336.469 54.7188 338.031 53.5 338.031 51.7188C338.031 50 336.719 48.8125 334.719 48.8125C332.719 48.8125 331.062 49.9375 331 51.6562H326.5C326.562 47.75 330.094 45.0625 334.719 45.0625C339.438 45.0625 342.594 47.8438 342.562 51.4375C342.594 53.9688 340.812 55.7812 338.281 56.2188V56.4062C341.594 56.8125 343.438 58.8438 343.406 61.6562C343.438 65.5312 339.75 68.3125 334.656 68.3125Z" fill="#58DF6D"/>
<path d="M394.625 45.6562V47.375C394.625 49.7188 394.625 53.3438 393.812 58.3438L390.875 58.125C391.578 53.6406 391.656 50.4062 391.688 48.0625H380.312V45.6562H394.625ZM387.438 53.6562V62.0312C390.422 61.9375 393.453 61.7344 396.25 61.375L396.406 63.5938C390.562 64.5312 384.062 64.6562 379.094 64.625L378.75 62.2188C380.5 62.2031 382.453 62.1875 384.5 62.125V53.6562H387.438ZM400.844 42.6562V54.2188H405.125V56.75H400.844V70.6562H397.844V42.6562H400.844ZM422.766 45.5V47.875H406.079V45.5H412.954V42.5312H415.923V45.5H422.766ZM414.423 49.125C418.454 49.1562 421.204 51.1562 421.204 54.2188C421.204 57.2812 418.454 59.3125 414.423 59.3125C410.36 59.3125 407.61 57.2812 407.61 54.2188C407.61 51.1562 410.36 49.1562 414.423 49.125ZM414.423 51.4062C412.048 51.4062 410.454 52.5 410.485 54.2188C410.454 55.9688 412.048 57 414.423 57C416.798 57 418.391 55.9688 418.423 54.2188C418.391 52.5 416.798 51.4062 414.423 51.4062ZM428.048 42.6562V50.25H432.11V52.7188H428.048V60.1562H425.079V42.6562H428.048ZM428.048 61.5938V70.6562H425.079V64H409.548V61.5938H428.048ZM439.845 60.2188C437.908 60.2188 436.314 58.625 436.314 56.6562C436.314 54.7188 437.908 53.125 439.845 53.125C441.814 53.125 443.408 54.7188 443.408 56.6562C443.408 58.625 441.814 60.2188 439.845 60.2188ZM471.549 42.6562V70.6562H468.549V42.6562H471.549ZM463.205 45.6562C463.205 53.8438 459.705 60.9688 450.111 65.5625L448.549 63.1562C456.002 59.6094 459.627 54.5625 460.205 48.0312H449.893V45.6562H463.205ZM489.565 43.7188C489.565 46.9375 494.003 49.625 499.471 50.25L498.44 52.5C493.846 51.9531 489.831 50.0156 488.034 47.1562C486.221 50.0156 482.206 51.9531 477.659 52.5L476.628 50.25C482.096 49.625 486.534 46.9375 486.534 43.7188V42.7812H489.565V43.7188ZM500.815 54.125V56.5H489.503V59H497.596V65.625H481.284V68.0938H498.378V70.375H478.378V63.4688H494.659V61.2812H478.346V59H486.534V56.5H475.284V54.125H500.815Z" fill="#AAF4B6"/>
</svg>
