<svg width="153" height="44" viewBox="0 0 153 44" fill="none" xmlns="http://www.w3.org/2000/svg">
<g clip-path="url(#clip0_38_432)">
<path d="M151.158 39.6085C147.325 36.2914 141.493 35.3326 133.653 39.1634" stroke="#58DF6D" stroke-width="3.90135" stroke-miterlimit="10" stroke-linecap="round"/>
<path d="M85.2152 21.4606C86.6298 20.6902 88.3196 19.0595 88.3196 15.6653V6.54857C88.3196 4.1902 86.8966 2.78203 84.5079 2.78203H69.6846C69.5618 2.78203 69.4856 2.77775 69.4432 2.77347C68.9647 2.57659 68.5454 2.48242 68.16 2.48242C67.5586 2.48242 66.9995 2.72639 66.5887 3.17581C66.2033 3.59954 66 4.13028 66 4.7081C66 4.97775 66.0339 5.25596 66.0974 5.52989C66.1186 5.61978 66.1271 5.70538 66.1271 5.77814V15.6653C66.1271 19.0637 67.8423 20.6945 69.2823 21.4649C71.1373 22.4579 73.7335 22.9416 77.2233 22.9416C80.7132 22.9416 83.3898 22.4579 85.2152 21.4606ZM84.1268 15.7081C84.1268 17.4801 83.3856 18.0451 82.8308 18.319C81.6703 18.8883 79.7857 19.175 77.2233 19.175C74.661 19.175 72.8399 18.884 71.6456 18.3147C71.0272 18.0194 70.3199 17.4544 70.3199 15.7081V6.54857H84.1268V15.7081Z" fill="#58DF6D"/>
<path d="M92.4701 26.8239C90.4203 26.092 87.8876 25.7239 84.9314 25.7239C81.9752 25.7239 79.4426 26.0963 77.3927 26.8239C75.2539 27.5857 73.6234 28.6686 72.5434 30.0383C71.4338 31.4507 70.8705 33.0643 70.8705 34.8406C70.8705 36.6169 71.4338 38.2733 72.5434 39.6857C73.6234 41.0554 75.2539 42.1383 77.3927 42.9001C79.4383 43.6321 81.9752 44.0001 84.9314 44.0001C87.8876 44.0001 90.4203 43.6278 92.4701 42.9001C94.6089 42.1383 96.2395 41.0554 97.3195 39.6857C98.4291 38.2733 98.9924 36.6426 98.9924 34.8406C98.9924 33.0387 98.4291 31.4507 97.3195 30.0383C96.2395 28.6686 94.6089 27.5857 92.4701 26.8239ZM84.9314 40.2336C82.6359 40.2336 80.7004 39.9511 79.1842 39.3904C77.74 38.8597 76.6685 38.1749 75.9993 37.3573C75.3683 36.5912 75.0634 35.7651 75.0634 34.8363C75.0634 33.9075 75.3725 33.1157 76.0036 32.3324C76.6685 31.5106 77.7358 30.8301 79.1715 30.3122C80.692 29.7643 82.6275 29.4861 84.9272 29.4861C87.2269 29.4861 89.1624 29.7643 90.6829 30.3122C92.1186 30.8301 93.1859 31.5106 93.8508 32.3324C94.4861 33.1157 94.791 33.9375 94.791 34.8363C94.791 35.7352 94.4861 36.5869 93.855 37.3573C93.1859 38.1749 92.1144 38.8554 90.6702 39.3904C89.1497 39.9511 87.2185 40.2336 84.923 40.2336H84.9314Z" fill="#58DF6D"/>
<path d="M94.4734 23.4424C94.4099 23.7206 94.376 24.0117 94.376 24.3113C94.376 24.9148 94.6386 25.4712 95.1172 25.8864C95.545 26.2588 96.0659 26.4514 96.6207 26.4514C97.1755 26.4514 97.6541 26.2545 98.0861 25.8864C98.5647 25.4712 98.8273 24.9148 98.8273 24.3113C98.8273 24.016 98.7934 23.7249 98.7298 23.4467C98.7087 23.3568 98.7002 23.2755 98.7002 23.1984V3.25292C98.7002 3.18016 98.7087 3.09455 98.7298 3.00895C98.7934 2.73074 98.8273 2.43969 98.8273 2.14008C98.8273 1.54086 98.5647 0.980156 98.0861 0.564981C97.6583 0.196887 97.1543 0 96.6249 0C96.0659 0 95.5492 0.196887 95.1214 0.564981C94.6429 0.980156 94.3803 1.53658 94.3803 2.14008C94.3803 2.43541 94.4142 2.73074 94.4777 3.00467C94.4989 3.09455 94.5073 3.18016 94.5073 3.25292V23.1984C94.5073 23.2712 94.4989 23.3568 94.4777 23.4424H94.4734Z" fill="#58DF6D"/>
<path d="M110.343 6.37738H130.968V13.6536C130.968 13.7264 130.956 13.8077 130.939 13.9019C130.875 14.1801 130.841 14.4712 130.841 14.7665C130.841 15.37 131.104 15.9264 131.583 16.3416C132.01 16.714 132.531 16.9066 133.086 16.9066C133.615 16.9066 134.119 16.7097 134.551 16.3373C135.026 15.9221 135.288 15.3657 135.288 14.7665C135.288 14.4712 135.254 14.1801 135.191 13.8976C135.17 13.8077 135.161 13.7264 135.161 13.6536V6.37738C135.161 4.01901 133.738 2.61084 131.35 2.61084H110.343C109.665 2.61084 109.225 2.88049 108.966 3.10734C108.568 3.46687 108.352 3.95909 108.352 4.49411C108.352 5.02913 108.573 5.52563 108.966 5.88088C109.216 6.10773 109.661 6.37738 110.343 6.37738Z" fill="#58DF6D"/>
<path d="M140.176 18.6829C139.926 18.456 139.481 18.1907 138.803 18.1907H104.583C103.867 18.1907 103.422 18.4903 103.177 18.7385C102.825 19.0895 102.635 19.5646 102.635 20.0739C102.635 20.5833 102.829 21.0627 103.177 21.4094C103.422 21.6576 103.867 21.9572 104.583 21.9572H138.803C139.481 21.9572 139.926 21.6876 140.176 21.465C140.574 21.1097 140.794 20.6132 140.794 20.0739C140.794 19.5346 140.574 19.0424 140.176 18.6829Z" fill="#58DF6D"/>
<path d="M134.272 37.0233C133.903 37.0233 133.543 37.1132 133.196 37.2887C131.731 38.0291 129.905 38.6027 127.779 38.9922C125.602 39.3902 123.383 39.5914 121.185 39.5914C119.457 39.5914 117.877 39.4673 116.488 39.2233C115.179 38.9964 114.201 38.6883 113.587 38.3202C113.13 38.0377 112.812 37.7381 112.638 37.4256C112.439 37.0618 112.312 36.728 112.278 36.4669C112.253 36.2828 112.236 36.0688 112.223 35.8248H131.138C133.526 35.8248 134.949 34.4167 134.949 32.0583V29.1906C134.949 26.8322 133.526 25.4241 131.138 25.4241H110.004C109.326 25.4241 108.882 25.6937 108.632 25.9206C108.234 26.2758 108.013 26.7723 108.013 27.3073C108.013 27.8424 108.234 28.3431 108.628 28.6941C108.877 28.921 109.322 29.1906 110.004 29.1906H130.757V32.0583H111.571C111.448 32.0583 111.372 32.054 111.33 32.0498C110.851 31.8529 110.432 31.7587 110.046 31.7587C109.445 31.7587 108.886 32.0027 108.475 32.4521C108.09 32.8758 107.886 33.4066 107.886 33.9844C107.886 34.2498 107.92 34.528 107.984 34.8105C108.005 34.9003 108.013 34.9817 108.013 35.0544C108.013 36.3556 108.238 37.5712 108.678 38.6669C109.178 39.8953 110.241 40.9396 111.851 41.77C112.88 42.2922 114.188 42.6731 115.84 42.9385C117.411 43.191 119.165 43.3194 121.058 43.3194C123.548 43.3194 126.043 43.0883 128.47 42.6346C130.934 42.1723 133.094 41.4789 134.882 40.5715C135.974 40.0194 136.093 39.1334 136.093 38.7824C136.093 38.2645 135.885 37.798 135.5 37.4641C135.271 37.2673 134.869 37.0276 134.272 37.0276V37.0233Z" fill="#58DF6D"/>
</g>
<path d="M46.6629 22.4838C46.2125 22.0773 46.0909 21.4411 46.289 20.8712C46.6494 19.8373 46.8476 18.7328 46.8476 17.5797C46.8476 11.9687 42.2081 7.41809 36.4876 7.41809C36.294 7.41809 36.1003 7.42251 35.9066 7.43576C35.2084 7.47552 34.5283 7.17951 34.0823 6.65376C32.1815 4.42262 29.3258 3 26.1277 3C24.1413 3 22.29 3.54784 20.7135 4.49773C20.1324 4.84676 19.4117 4.93954 18.7586 4.74956C17.5379 4.39169 16.2227 4.25032 14.8624 4.3696C9.92113 4.79374 5.91229 8.72584 5.47537 13.5725C5.36726 14.761 5.47537 15.9141 5.75013 16.9965C5.96634 17.8227 5.6105 18.6754 4.87179 19.126C1.64669 21.1053 -0.384758 24.7723 0.0611705 28.8679C0.574663 33.5643 4.44388 37.3462 9.23197 37.8455C10.7319 38.0001 12.1733 37.8455 13.4976 37.4302C14.4119 37.143 15.4254 37.3595 16.1011 38.0222C17.9749 39.8601 20.5649 41 23.4251 41C26.1322 41 28.5961 39.9794 30.4428 38.3094C31.2851 37.5495 32.5824 37.4744 33.5013 38.1371C35.4877 39.573 38.0146 40.3329 40.7262 40.0589C45.1404 39.6171 49.379 35.5569 49.9195 31.236C50.3519 27.7767 49.0097 24.6045 46.6629 22.4838Z" fill="#58DF6D"/>
<path d="M19.0288 26.2923C21.4145 26.2923 23.3485 24.3953 23.3485 22.0553C23.3485 19.7153 21.4145 17.8184 19.0288 17.8184C16.6431 17.8184 14.7092 19.7153 14.7092 22.0553C14.7092 24.3953 16.6431 26.2923 19.0288 26.2923Z" fill="white"/>
<path d="M17.7901 25.073C19.4892 25.073 20.8665 23.7219 20.8665 22.0554C20.8665 20.3888 19.4892 19.0378 17.7901 19.0378C16.091 19.0378 14.7136 20.3888 14.7136 22.0554C14.7136 23.7219 16.091 25.073 17.7901 25.073Z" fill="#373D49"/>
<path d="M27.6636 26.2923C30.0493 26.2923 31.9833 24.3953 31.9833 22.0553C31.9833 19.7153 30.0493 17.8184 27.6636 17.8184C25.278 17.8184 23.344 19.7153 23.344 22.0553C23.344 24.3953 25.278 26.2923 27.6636 26.2923Z" fill="white"/>
<path d="M26.425 25.073C28.124 25.073 29.5014 23.7219 29.5014 22.0554C29.5014 20.3888 28.124 19.0378 26.425 19.0378C24.7259 19.0378 23.3485 20.3888 23.3485 22.0554C23.3485 23.7219 24.7259 25.073 26.425 25.073Z" fill="#373D49"/>
<defs>
<clipPath id="clip0_38_432">
<rect width="87" height="44" fill="white" transform="translate(66)"/>
</clipPath>
</defs>
</svg>
