<svg width="1151" height="122" viewBox="0 0 1151 122" fill="none" xmlns="http://www.w3.org/2000/svg">
<rect x="28" y="61" width="284" height="61" rx="30.5" fill="#58DF6D"/>
<path d="M150.031 100L150.734 95.7578H147.382L146.679 100H144.054L144.757 95.7578H142.414L142.859 93.1562H145.179L145.718 89.875H143.398L143.82 87.25H146.164L146.843 83.0312H149.468L148.789 87.25H152.117L152.796 83.0312H155.421L154.742 87.25H157.062L156.617 89.875H154.296L153.757 93.1562H156.101L155.656 95.7578H153.335L152.632 100H150.031ZM147.804 93.1562H151.156L151.695 89.875H148.343L147.804 93.1562ZM176.879 90.9062V93.25H157.379V90.9062H165.676V89.0781H159.746V81.7656H174.535V84.0859H162.723V86.7344H174.652V89.0781H168.605V90.9062H176.879ZM167.082 94.3281C171.699 94.3281 174.488 95.7344 174.512 98.2656C174.488 100.75 171.699 102.18 167.082 102.18C162.418 102.18 159.605 100.75 159.605 98.2656C159.605 95.7344 162.418 94.3281 167.082 94.3281ZM167.082 96.6016C164.129 96.6016 162.629 97.1641 162.652 98.2656C162.629 99.3906 164.129 99.9062 167.082 99.9062C169.965 99.9062 171.488 99.3906 171.512 98.2656C171.488 97.1641 169.965 96.6016 167.082 96.6016ZM195.618 80.8516V96.4141H192.641V88.7734H189.149V86.3594H192.641V80.8516H195.618ZM196.133 99.3906V101.781H181.461V95.0547H184.461V99.3906H196.133ZM185.704 85.0234C185.704 87.4844 187.204 90.1328 190.602 91.2344L189.125 93.6016C186.758 92.8398 185.141 91.2812 184.204 89.3359C183.266 91.4922 181.567 93.2031 179.047 94.0469L177.524 91.6094C181.04 90.5078 182.633 87.7188 182.657 85V84.6719H178.368V82.2812H189.946V84.6719H185.704V85.0234Z" fill="white"/>
<circle cx="50" cy="50" r="49.1379" fill="white" stroke="#58DF6D" stroke-width="1.72414"/>
<path d="M74.4208 48.9739C73.8772 48.4737 73.7304 47.6909 73.9696 46.9896C74.4045 45.7176 74.6437 44.3585 74.6437 42.9396C74.6437 36.0356 69.0444 30.4363 62.1403 30.4363C61.9066 30.4363 61.6728 30.4417 61.439 30.458C60.5964 30.5069 59.7755 30.1427 59.2374 29.4958C56.9433 26.7505 53.4967 25 49.6369 25C47.2395 25 45.0052 25.6741 43.1026 26.8429C42.4013 27.2724 41.5315 27.3865 40.7432 27.1528C39.27 26.7124 37.6826 26.5385 36.0409 26.6852C30.0773 27.2071 25.239 32.0454 24.7117 38.0089C24.5812 39.4713 24.7117 40.8902 25.0433 42.222C25.3043 43.2386 24.8748 44.2878 23.9833 44.8423C20.0909 47.2778 17.6392 51.7898 18.1773 56.8293C18.7971 62.608 23.4668 67.2614 29.2456 67.8757C31.0558 68.066 32.7954 67.8757 34.3937 67.3647C35.4972 67.0114 36.7204 67.2777 37.5358 68.0932C39.7973 70.3547 42.9232 71.7572 46.3752 71.7572C49.6424 71.7572 52.616 70.5014 54.8449 68.4465C55.8614 67.5115 57.4271 67.4191 58.5361 68.2345C60.9335 70.0013 63.9832 70.9363 67.2558 70.5993C72.5834 70.0557 77.6989 65.0597 78.3512 59.7431C78.8731 55.4865 77.2531 51.5833 74.4208 48.9739Z" fill="#58DF6D"/>
<path d="M41.0701 53.6599C43.9493 53.6599 46.2834 51.3258 46.2834 48.4465C46.2834 45.5673 43.9493 43.2332 41.0701 43.2332C38.1908 43.2332 35.8567 45.5673 35.8567 48.4465C35.8567 51.3258 38.1908 53.6599 41.0701 53.6599Z" fill="white"/>
<path d="M39.5748 52.1594C41.6254 52.1594 43.2877 50.4971 43.2877 48.4465C43.2877 46.3959 41.6254 44.7335 39.5748 44.7335C37.5242 44.7335 35.8618 46.3959 35.8618 48.4465C35.8618 50.4971 37.5242 52.1594 39.5748 52.1594Z" fill="#373D49"/>
<path d="M51.4914 53.6599C54.3707 53.6599 56.7048 51.3258 56.7048 48.4465C56.7048 45.5673 54.3707 43.2332 51.4914 43.2332C48.6122 43.2332 46.2781 45.5673 46.2781 48.4465C46.2781 51.3258 48.6122 53.6599 51.4914 53.6599Z" fill="white"/>
<path d="M49.9964 52.1596C52.047 52.1596 53.7094 50.4972 53.7094 48.4466C53.7094 46.396 52.047 44.7336 49.9964 44.7336C47.9458 44.7336 46.2834 46.396 46.2834 48.4466C46.2834 50.4972 47.9458 52.1596 49.9964 52.1596Z" fill="#373D49"/>
<rect x="444" y="61" width="287" height="61" rx="30.5" fill="#58DF6D"/>
<path d="M567.531 100L568.234 95.7578H564.882L564.179 100H561.554L562.257 95.7578H559.914L560.359 93.1562H562.679L563.218 89.875H560.898L561.32 87.25H563.664L564.343 83.0312H566.968L566.289 87.25H569.617L570.296 83.0312H572.921L572.242 87.25H574.562L574.117 89.875H571.796L571.257 93.1562H573.601L573.156 95.7578H570.835L570.132 100H567.531ZM565.304 93.1562H568.656L569.195 89.875H565.843L565.304 93.1562ZM592.738 80.8281V102.203H589.715V80.8281H592.738ZM578.934 82.5156V87.7188H583.527V82.5156H586.48V97.2109H575.934V82.5156H578.934ZM578.934 94.7969H583.527V90.0391H578.934V94.7969ZM612.602 87.5078V89.8984H597.555V81.7891H600.555V87.5078H612.602ZM614.665 92.3359V94.7734H606.297V102.156H603.297V94.7734H595.141V92.3359H614.665Z" fill="white"/>
<circle cx="466" cy="50" r="49.1379" fill="white" stroke="#58DF6D" stroke-width="1.72414"/>
<path d="M486.777 72.9507L471.144 65.4755C470.208 65.0259 469.087 65.2357 468.374 65.985L457.014 77.9261C455.504 79.5147 452.836 78.4117 452.884 76.2237L453.19 61.9627C453.214 60.7818 452.381 59.7627 451.218 59.5529L437.802 57.1431C435.752 56.7774 435.116 54.1458 436.771 52.881L447.519 44.6624C448.49 43.9191 448.748 42.5644 448.119 41.5213L440.236 28.4532C439.073 26.523 440.979 24.1971 443.101 24.9584L460.311 31.1568C461.091 31.4385 461.96 31.2946 462.613 30.7791L474.698 21.2118C476.317 19.935 478.685 21.1519 478.583 23.214L478.001 34.6875C477.947 35.7186 478.565 36.6717 479.53 37.0434L494.642 42.8941C496.632 43.6674 496.698 46.4608 494.744 47.324L484.188 51.9758C482.947 52.5213 482.407 53.9839 482.995 55.2068L489.984 69.7496C490.968 71.7877 488.833 73.9278 486.789 72.9507H486.777Z" fill="#FF7D27"/>
<path d="M460.012 53.2766C463.187 53.2766 465.761 50.7028 465.761 47.5278C465.761 44.3529 463.187 41.7791 460.012 41.7791C456.837 41.7791 454.263 44.3529 454.263 47.5278C454.263 50.7028 456.837 53.2766 460.012 53.2766Z" fill="white"/>
<path d="M458.363 51.6219C460.625 51.6219 462.458 49.7888 462.458 47.5276C462.458 45.2664 460.625 43.4333 458.363 43.4333C456.102 43.4333 454.269 45.2664 454.269 47.5276C454.269 49.7888 456.102 51.6219 458.363 51.6219Z" fill="#373D49"/>
<path d="M471.503 53.2766C474.678 53.2766 477.252 50.7028 477.252 47.5278C477.252 44.3529 474.678 41.7791 471.503 41.7791C468.328 41.7791 465.755 44.3529 465.755 47.5278C465.755 50.7028 468.328 53.2766 471.503 53.2766Z" fill="white"/>
<path d="M469.855 51.6219C472.116 51.6219 473.949 49.7888 473.949 47.5276C473.949 45.2664 472.116 43.4333 469.855 43.4333C467.594 43.4333 465.76 45.2664 465.76 47.5276C465.76 49.7888 467.594 51.6219 469.855 51.6219Z" fill="#373D49"/>
<rect x="863" y="61.0001" width="288" height="61" rx="30.5" fill="#58DF6D"/>
<path d="M976.9 100L977.603 95.7579H974.251L973.548 100H970.923L971.626 95.7579H969.283L969.728 93.1564H972.048L972.587 89.8751H970.267L970.689 87.2501H973.033L973.712 83.0314H976.337L975.658 87.2501H978.986L979.665 83.0314H982.29L981.611 87.2501H983.931L983.486 89.8751H981.165L980.626 93.1564H982.97L982.525 95.7579H980.204L979.501 100H976.9ZM974.673 93.1564H978.025L978.564 89.8751H975.212L974.673 93.1564ZM1001.17 80.8282V85.4923H1004.05V87.9532H1001.17V92.7579H998.17V80.8282H1001.17ZM995.193 82.0704C995.17 87.7189 991.607 91.5392 985.209 93.2267L984.013 90.8595C988.795 89.6759 991.431 87.3087 991.935 84.4611H985.068V82.0704H995.193ZM1001.17 93.5548V101.899H987.224V93.5548H1001.17ZM990.201 95.9689V99.5548H998.217V95.9689H990.201ZM1022.44 80.8282V102.156H1019.42V80.8282H1022.44ZM1016.04 83.0548C1016.04 89.5236 1013.77 94.8907 1006.15 98.5001L1004.58 96.1095C1010.09 93.5079 1012.51 90.1329 1012.99 85.3986H1005.73V83.0548H1016.04ZM1044.46 83.6407V86.0548H1041.69V88.2345H1044.46V90.7189H1041.69V93.4142H1038.69V80.8282H1041.69V83.6407H1044.46ZM1041.69 94.2579V102.156H1038.69V96.672H1027.33V94.2579H1041.69ZM1030.77 82.0001C1034.08 81.9767 1036.58 84.1798 1036.58 87.1798C1036.58 90.2501 1034.08 92.4064 1030.77 92.4064C1027.44 92.4064 1024.91 90.2501 1024.91 87.1798C1024.91 84.1798 1027.44 81.9767 1030.77 82.0001ZM1030.77 84.5548C1029.08 84.5548 1027.84 85.5157 1027.87 87.1798C1027.84 88.8907 1029.08 89.8751 1030.77 89.8751C1032.41 89.8751 1033.65 88.8907 1033.68 87.1798C1033.65 85.5157 1032.41 84.5548 1030.77 84.5548Z" fill="white"/>
<circle cx="885" cy="50" r="49.1379" fill="white" stroke="#58DF6D" stroke-width="1.72414"/>
<path d="M905.816 17.6992H892.951C890.722 17.6992 888.68 18.5621 887.148 19.9644C885.926 21.079 884.006 21.079 882.783 19.9644C881.252 18.5621 879.209 17.6992 876.98 17.6992H864.116C859.369 17.6992 855.486 21.5824 855.486 26.3284V73.07C855.486 77.8161 859.369 81.6992 864.116 81.6992H876.98C879.209 81.6992 881.252 80.8363 882.783 79.434C884.006 78.3194 885.926 78.3194 887.148 79.434C888.68 80.8363 890.722 81.6992 892.951 81.6992H905.816C910.562 81.6992 914.445 77.8161 914.445 73.07V26.3284C914.445 21.5824 910.562 17.6992 905.816 17.6992Z" fill="#FFED46"/>
<path d="M878.778 49.7158C882.587 49.7158 885.674 46.6283 885.674 42.8196C885.674 39.011 882.587 35.9235 878.778 35.9235C874.969 35.9235 871.882 39.011 871.882 42.8196C871.882 46.6283 874.969 49.7158 878.778 49.7158Z" fill="white"/>
<path d="M876.8 47.7311C879.513 47.7311 881.712 45.5322 881.712 42.8197C881.712 40.1071 879.513 37.9082 876.8 37.9082C874.088 37.9082 871.889 40.1071 871.889 42.8197C871.889 45.5322 874.088 47.7311 876.8 47.7311Z" fill="#373D49"/>
<path d="M892.562 49.7158C896.371 49.7158 899.458 46.6283 899.458 42.8196C899.458 39.011 896.371 35.9235 892.562 35.9235C888.754 35.9235 885.666 39.011 885.666 42.8196C885.666 46.6283 888.754 49.7158 892.562 49.7158Z" fill="white"/>
<path d="M890.585 47.7312C893.298 47.7312 895.497 45.5323 895.497 42.8198C895.497 40.1073 893.298 37.9083 890.585 37.9083C887.873 37.9083 885.674 40.1073 885.674 42.8198C885.674 45.5323 887.873 47.7312 890.585 47.7312Z" fill="#373D49"/>
</svg>
